<svg width="24" height="24" viewBox="0 0 24 24" fill="none" xmlns="http://www.w3.org/2000/svg">
<path d="M10.0146 18.0513H11.0146V19.0513V21.5145C13.4849 20.4917 16.1326 19.2638 18.2812 17.6221C20.8117 15.6886 22.5366 13.2717 22.5366 10.0256C22.5366 7.89672 21.6919 5.85523 20.1887 4.35022C18.6856 2.84526 16.6471 2 14.5219 2L10.0146 2C7.88939 2 5.85097 2.84526 4.34784 4.35022C2.84467 5.85523 1.99998 7.89672 1.99998 10.0256C1.99998 12.1546 2.84467 14.1961 4.34784 15.7011C5.85097 17.206 7.88939 18.0513 10.0146 18.0513Z" stroke="#404155" stroke-width="2"/>
<path d="M5.82928 12.4265H17.8293" stroke="#404155" stroke-width="2" stroke-linecap="round"/>
<path d="M5.82928 8.42645H13.8293" stroke="#404155" stroke-width="2" stroke-linecap="round"/>
</svg>
