<svg width="24" height="24" viewBox="0 0 24 24" fill="none" xmlns="http://www.w3.org/2000/svg">
<mask id="path-1-inside-1_1_261" fill="white">
<path fill-rule="evenodd" clip-rule="evenodd" d="M11.7316 1C11.3759 1 11.0347 1.14128 10.7831 1.39277L1.39277 10.7831C1.20522 10.9707 1.0775 11.2097 1.02576 11.4699C0.974023 11.7301 1.00059 11.9998 1.1021 12.2449C1.20361 12.49 1.37551 12.6995 1.59606 12.8469C1.81661 12.9943 2.07592 13.073 2.3412 13.073H3.68268V21.1219C3.68268 21.4777 3.82401 21.8189 4.07559 22.0705C4.32716 22.3221 4.66837 22.4634 5.02416 22.4634H7.70712H9.04857V18.1709C9.04857 16.6892 10.2498 15.488 11.7315 15.488C13.2132 15.488 14.4144 16.6892 14.4144 18.1709V22.4634H15.756H18.439C18.7948 22.4634 19.136 22.3221 19.3875 22.0705C19.6391 21.8189 19.7804 21.4777 19.7804 21.1219V13.073H21.1219C21.3872 13.073 21.6465 12.9943 21.8671 12.8469C22.0876 12.6995 22.2595 12.49 22.361 12.2449C22.4625 11.9998 22.4891 11.7301 22.4374 11.4699C22.3856 11.2097 22.2579 10.9707 22.0704 10.7831L12.68 1.39277C12.4284 1.14128 12.0873 1 11.7316 1Z"/>
</mask>
<path d="M10.7831 1.39277L9.72264 0.331947L9.72248 0.332107L10.7831 1.39277ZM1.39277 10.7831L0.332108 9.72248L0.331947 9.72264L1.39277 10.7831ZM1.02576 11.4699L2.49696 11.7625L1.02576 11.4699ZM1.1021 12.2449L2.48794 11.6709L2.48794 11.6709L1.1021 12.2449ZM1.59606 12.8469L2.42957 11.5998L2.42957 11.5998L1.59606 12.8469ZM2.3412 13.073L2.34087 14.573H2.3412V13.073ZM3.68268 13.073H5.18268V11.573H3.68268V13.073ZM4.07559 22.0705L3.01493 23.1312L3.01493 23.1312L4.07559 22.0705ZM9.04857 22.4634V23.9634H10.5486V22.4634H9.04857ZM14.4144 22.4634H12.9144V23.9634H14.4144V22.4634ZM19.7804 13.073V11.573H18.2804V13.073H19.7804ZM21.1219 13.073L21.1219 14.573L21.1223 14.573L21.1219 13.073ZM21.8671 12.8469L22.7006 14.094L22.7006 14.094L21.8671 12.8469ZM22.361 12.2449L20.9752 11.6709L20.9752 11.6709L22.361 12.2449ZM22.4374 11.4699L23.9086 11.1774L23.9086 11.1774L22.4374 11.4699ZM22.0704 10.7831L23.1312 9.72264L23.131 9.72248L22.0704 10.7831ZM12.68 1.39277L13.7406 0.332107L13.7405 0.331947L12.68 1.39277ZM11.8436 2.45359C11.8139 2.48331 11.7736 2.5 11.7316 2.5V-0.5C10.9781 -0.5 10.2555 -0.200748 9.72264 0.331947L11.8436 2.45359ZM2.45343 11.8438L11.8438 2.45343L9.72248 0.332107L0.332108 9.72248L2.45343 11.8438ZM2.49696 11.7625C2.49084 11.7932 2.47575 11.8215 2.45359 11.8436L0.331947 9.72264C-0.0653179 10.12 -0.335845 10.6263 -0.445434 11.1774L2.49696 11.7625ZM2.48794 11.6709C2.49993 11.6999 2.50307 11.7317 2.49696 11.7625L-0.445434 11.1774C-0.555023 11.7285 -0.498754 12.2997 -0.283738 12.8189L2.48794 11.6709ZM2.42957 11.5998C2.45563 11.6172 2.47594 11.6419 2.48794 11.6709L-0.283739 12.8189C-0.0687259 13.338 0.295378 13.7817 0.762551 14.094L2.42957 11.5998ZM2.34152 11.573C2.37286 11.5731 2.4035 11.5824 2.42957 11.5998L0.762551 14.094C1.22972 14.4062 1.77898 14.5729 2.34087 14.573L2.34152 11.573ZM3.68268 11.573H2.3412V14.573H3.68268V11.573ZM5.18268 21.1219V13.073H2.18268V21.1219H5.18268ZM5.13625 21.0098C5.16597 21.0396 5.18268 21.0799 5.18268 21.1219H2.18268C2.18268 21.8755 2.48205 22.5983 3.01493 23.1312L5.13625 21.0098ZM5.02416 20.9634C5.0662 20.9634 5.10652 20.9801 5.13625 21.0098L3.01493 23.1312C3.54781 23.664 4.27055 23.9634 5.02416 23.9634V20.9634ZM7.70712 20.9634H5.02416V23.9634H7.70712V20.9634ZM9.04857 20.9634H7.70712V23.9634H9.04857V20.9634ZM10.5486 22.4634V18.1709H7.54857V22.4634H10.5486ZM10.5486 18.1709C10.5486 17.5176 11.0782 16.988 11.7315 16.988V13.988C9.42133 13.988 7.54857 15.8608 7.54857 18.1709H10.5486ZM11.7315 16.988C12.3848 16.988 12.9144 17.5176 12.9144 18.1709H15.9144C15.9144 15.8608 14.0417 13.988 11.7315 13.988V16.988ZM12.9144 18.1709V22.4634H15.9144V18.1709H12.9144ZM15.756 20.9634H14.4144V23.9634H15.756V20.9634ZM18.439 20.9634H15.756V23.9634H18.439V20.9634ZM18.3269 21.0098C18.3566 20.9801 18.3969 20.9634 18.439 20.9634V23.9634C19.1926 23.9634 19.9153 23.664 20.4482 23.1312L18.3269 21.0098ZM18.2804 21.1219C18.2804 21.0799 18.2971 21.0396 18.3269 21.0098L20.4482 23.1312C20.9811 22.5983 21.2804 21.8755 21.2804 21.1219H18.2804ZM18.2804 13.073V21.1219H21.2804V13.073H18.2804ZM21.1219 11.573H19.7804V14.573H21.1219V11.573ZM21.0336 11.5998C21.0596 11.5824 21.0903 11.5731 21.1216 11.573L21.1223 14.573C21.6842 14.5729 22.2334 14.4062 22.7006 14.094L21.0336 11.5998ZM20.9752 11.6709C20.9872 11.642 21.0075 11.6172 21.0336 11.5998L22.7006 14.094C23.1678 13.7817 23.5319 13.338 23.7469 12.8189L20.9752 11.6709ZM20.9662 11.7625C20.9601 11.7317 20.9632 11.6999 20.9752 11.6709L23.7469 12.8189C23.9619 12.2997 24.0181 11.7285 23.9086 11.1774L20.9662 11.7625ZM21.0095 11.8436C20.9874 11.8215 20.9723 11.7932 20.9662 11.7625L23.9086 11.1774C23.799 10.6263 23.5285 10.12 23.1312 9.72264L21.0095 11.8436ZM11.6193 2.45343L21.0097 11.8438L23.131 9.72248L13.7406 0.332107L11.6193 2.45343ZM11.7316 2.5C11.6895 2.5 11.6492 2.4833 11.6195 2.45359L13.7405 0.331947C13.2076 -0.200748 12.485 -0.5 11.7316 -0.5V2.5Z" fill="#8D99AE" mask="url(#path-1-inside-1_1_261)"/>
</svg>
