<svg width="24" height="24" viewBox="0 0 24 24" fill="none" xmlns="http://www.w3.org/2000/svg">
<path d="M20.4 10.4V13.55C20.4 17.5096 20.4 19.4899 19.1694 20.7194C17.9398 21.95 15.9595 21.95 12 21.95C8.04044 21.95 6.06015 21.95 4.8306 20.7194C3.6 19.4899 3.59999 17.5096 3.59999 13.55V10.4C3.59999 6.44045 3.6 4.46015 4.8306 3.2306C6.06015 2 8.04044 2 12 2C15.9595 2 17.9398 2 19.1694 3.2306C19.8561 3.91625 20.1595 4.835 20.2929 6.2" stroke="#8D99AE" stroke-width="1.2915" stroke-linecap="round"/>
<path d="M6.75009 21.95V23H7.80009V21.95M16.2001 21.95V23H17.2501V21.95" stroke="#8D99AE" stroke-width="1.2915" stroke-linejoin="round"/>
<path d="M3.60009 11.975H8.85009H13.0501H20.4001M6.75009 7.25V9.35" stroke="#8D99AE" stroke-width="1.2915" stroke-linecap="round"/>
</svg>
