<svg width="24" height="24" viewBox="0 0 24 24" fill="none" xmlns="http://www.w3.org/2000/svg">
<g clip-path="url(#clip0_1_279)">
<path d="M11.25 15.5C12.9069 15.5 14.25 14.1569 14.25 12.5C14.25 10.8431 12.9069 9.5 11.25 9.5C9.59315 9.5 8.25 10.8431 8.25 12.5C8.25 14.1569 9.59315 15.5 11.25 15.5Z" stroke="#8D99AE" stroke-width="1.5"/>
<path d="M13.015 2.652C12.648 2.5 12.182 2.5 11.25 2.5C10.318 2.5 9.85199 2.5 9.48499 2.652C9.24217 2.75251 9.02154 2.8999 8.83572 3.08572C8.64989 3.27155 8.50251 3.49218 8.40199 3.735C8.30999 3.958 8.27299 4.219 8.25899 4.598C8.25276 4.87199 8.17699 5.1399 8.0388 5.37657C7.90062 5.61324 7.70454 5.81091 7.46899 5.951C7.22989 6.08504 6.96064 6.1561 6.68653 6.1575C6.41242 6.1589 6.14245 6.09059 5.90199 5.959C5.56599 5.781 5.32299 5.683 5.08199 5.651C4.55631 5.58187 4.02469 5.72431 3.60399 6.047C3.28999 6.29 3.05599 6.693 2.58999 7.5C2.12399 8.307 1.88999 8.71 1.83899 9.105C1.80463 9.36545 1.82191 9.63012 1.88986 9.88389C1.95781 10.1377 2.07508 10.3756 2.23499 10.584C2.38299 10.776 2.58999 10.937 2.91099 11.139C3.38399 11.436 3.68799 11.942 3.68799 12.5C3.68799 13.058 3.38399 13.564 2.91099 13.86C2.58999 14.063 2.38199 14.224 2.23499 14.416C2.07508 14.6244 1.95781 14.8623 1.88986 15.1161C1.82191 15.3699 1.80463 15.6345 1.83899 15.895C1.89099 16.289 2.12399 16.693 2.58899 17.5C3.05599 18.307 3.28899 18.71 3.60399 18.953C3.81243 19.1129 4.05033 19.2302 4.3041 19.2981C4.55787 19.3661 4.82254 19.3834 5.08299 19.349C5.32299 19.317 5.56599 19.219 5.90199 19.041C6.14245 18.9094 6.41242 18.8411 6.68653 18.8425C6.96064 18.8439 7.22989 18.915 7.46899 19.049C7.95199 19.329 8.23899 19.844 8.25899 20.402C8.27299 20.782 8.30899 21.042 8.40199 21.265C8.50251 21.5078 8.64989 21.7284 8.83572 21.9143C9.02154 22.1001 9.24217 22.2475 9.48499 22.348C9.85199 22.5 10.318 22.5 11.25 22.5C12.182 22.5 12.648 22.5 13.015 22.348C13.2578 22.2475 13.4784 22.1001 13.6643 21.9143C13.8501 21.7284 13.9975 21.5078 14.098 21.265C14.19 21.042 14.227 20.782 14.241 20.402C14.261 19.844 14.548 19.328 15.031 19.049C15.2701 18.915 15.5394 18.8439 15.8135 18.8425C16.0876 18.8411 16.3575 18.9094 16.598 19.041C16.934 19.219 17.177 19.317 17.417 19.349C17.6774 19.3834 17.9421 19.3661 18.1959 19.2981C18.4497 19.2302 18.6876 19.1129 18.896 18.953C19.211 18.711 19.444 18.307 19.91 17.5C20.376 16.693 20.61 16.29 20.661 15.895C20.6954 15.6345 20.6781 15.3699 20.6101 15.1161C20.5422 14.8623 20.4249 14.6244 20.265 14.416C20.117 14.224 19.91 14.063 19.589 13.861C19.3547 13.7186 19.1605 13.519 19.0246 13.2809C18.8887 13.0428 18.8155 12.7741 18.812 12.5C18.812 11.942 19.116 11.436 19.589 11.14C19.91 10.937 20.118 10.776 20.265 10.584C20.4249 10.3756 20.5422 10.1377 20.6101 9.88389C20.6781 9.63012 20.6954 9.36545 20.661 9.105C20.609 8.711 20.376 8.307 19.911 7.5C19.444 6.693 19.211 6.29 18.896 6.047C18.6876 5.88709 18.4497 5.76981 18.1959 5.70187C17.9421 5.63392 17.6774 5.61664 17.417 5.651C17.177 5.683 16.934 5.781 16.597 5.959C16.3567 6.09042 16.0869 6.15862 15.813 6.15722C15.539 6.15582 15.27 6.08486 15.031 5.951C14.7954 5.81091 14.5994 5.61324 14.4612 5.37657C14.323 5.1399 14.2472 4.87199 14.241 4.598C14.227 4.218 14.191 3.958 14.098 3.735C13.9975 3.49218 13.8501 3.27155 13.6643 3.08572C13.4784 2.8999 13.2578 2.75251 13.015 2.652Z" stroke="#8D99AE" stroke-width="1.5"/>
</g>
<defs>
<clipPath id="clip0_1_279">
<rect width="21" height="23" fill="white" transform="translate(1 1)"/>
</clipPath>
</defs>
</svg>
