<svg width="24" height="24" viewBox="0 0 24 24" fill="none" xmlns="http://www.w3.org/2000/svg">
<path d="M17 8.66666C18.3807 8.66666 19.5 7.54738 19.5 6.16666C19.5 4.78595 18.3807 3.66666 17 3.66666C15.6193 3.66666 14.5 4.78595 14.5 6.16666C14.5 7.54738 15.6193 8.66666 17 8.66666Z" stroke="#404155" stroke-width="1.5" stroke-linecap="round" stroke-linejoin="round"/>
<path d="M7 14.5C8.38071 14.5 9.5 13.3807 9.5 12C9.5 10.6193 8.38071 9.5 7 9.5C5.61929 9.5 4.5 10.6193 4.5 12C4.5 13.3807 5.61929 14.5 7 14.5Z" stroke="#404155" stroke-width="1.5" stroke-linecap="round" stroke-linejoin="round"/>
<path d="M17 20.3333C18.3807 20.3333 19.5 19.214 19.5 17.8333C19.5 16.4526 18.3807 15.3333 17 15.3333C15.6193 15.3333 14.5 16.4526 14.5 17.8333C14.5 19.214 15.6193 20.3333 17 20.3333Z" stroke="#404155" stroke-width="1.5" stroke-linecap="round" stroke-linejoin="round"/>
<path d="M9.15833 13.2581L14.85 16.5748" stroke="#404155" stroke-width="1.5" stroke-linecap="round" stroke-linejoin="round"/>
<path d="M14.8417 7.4248L9.15833 10.7415" stroke="#404155" stroke-width="1.5" stroke-linecap="round" stroke-linejoin="round"/>
</svg>
