<svg width="24" height="24" viewBox="0 0 24 24" fill="none" xmlns="http://www.w3.org/2000/svg">
<path d="M9.81065 8.0683H14.9243M6.96974 8.0683C6.96974 8.219 6.90988 8.36351 6.80332 8.47007C6.69677 8.57662 6.55225 8.63649 6.40156 8.63649C6.25086 8.63649 6.10635 8.57662 5.99979 8.47007C5.89324 8.36351 5.83337 8.219 5.83337 8.0683C5.83337 7.91761 5.89324 7.77309 5.99979 7.66654C6.10635 7.55998 6.25086 7.50012 6.40156 7.50012C6.55225 7.50012 6.69677 7.55998 6.80332 7.66654C6.90988 7.77309 6.96974 7.91761 6.96974 8.0683Z" stroke="#8D99AE" stroke-width="1.13636" stroke-linecap="round"/>
<path d="M9.81065 12.6139H18.3334M6.96974 12.6139C6.96974 12.7646 6.90988 12.9091 6.80332 13.0157C6.69677 13.1222 6.55225 13.1821 6.40156 13.1821C6.25086 13.1821 6.10635 13.1222 5.99979 13.0157C5.89324 12.9091 5.83337 12.7646 5.83337 12.6139C5.83337 12.4632 5.89324 12.3187 5.99979 12.2121C6.10635 12.1056 6.25086 12.0457 6.40156 12.0457C6.55225 12.0457 6.69677 12.1056 6.80332 12.2121C6.90988 12.3187 6.96974 12.4632 6.96974 12.6139Z" stroke="#8D99AE" stroke-width="1.13636" stroke-linecap="round"/>
<path d="M9.81065 17.1593H18.3334M6.96974 17.1593C6.96974 17.31 6.90988 17.4545 6.80332 17.5611C6.69677 17.6677 6.55225 17.7275 6.40156 17.7275C6.25086 17.7275 6.10635 17.6677 5.99979 17.5611C5.89324 17.4545 5.83337 17.31 5.83337 17.1593C5.83337 17.0086 5.89324 16.8641 5.99979 16.7576C6.10635 16.651 6.25086 16.5912 6.40156 16.5912C6.55225 16.5912 6.69677 16.651 6.80332 16.7576C6.90988 16.8641 6.96974 17.0086 6.96974 17.1593Z" stroke="#8D99AE" stroke-width="1.13636" stroke-linecap="round"/>
<rect x="1.75" y="2.75" width="19.5" height="19.5" rx="6.25" stroke="#8D99AE" stroke-width="1.5"/>
</svg>
